<svg id="Capa_1" enable-background="new 0 0 512 512" height="512" viewBox="0 0 512 512" width="512" xmlns="http://www.w3.org/2000/svg" xmlns:xlink="http://www.w3.org/1999/xlink"><linearGradient id="SVGID_1_" gradientUnits="userSpaceOnUse" x1="74.981" x2="437.019" y1="74.981" y2="437.019"><stop offset="0" stop-color="#fa9647"/><stop offset="1" stop-color="#f8765f"/></linearGradient><linearGradient id="SVGID_2_" gradientUnits="userSpaceOnUse" x1="82.75" x2="429.25" y1="256" y2="256"><stop offset="0" stop-color="#408377"/><stop offset="1" stop-color="#42627a"/></linearGradient><g><circle cx="256" cy="256" fill="url(#SVGID_1_)" r="256"/><path d="m327.398 82.75c-27.785 0-53.003 11.188-71.398 29.291-18.785 18.487-30.454 44.185-30.454 72.561v40.944h-51.095v60.908h51.095v40.944c0 22.577-18.367 40.944-40.944 40.944s-40.944-18.367-40.944-40.944v-10.151h-60.908v10.151c0 56.161 45.691 101.852 101.852 101.852 27.785 0 53.003-11.189 71.398-29.291 18.785-18.487 30.454-44.185 30.454-72.561v-40.944h51.095v-60.908h-51.095v-40.944c0-22.577 18.367-40.944 40.944-40.944s40.944 18.367 40.944 40.944v10.151h60.908v-10.151c0-56.161-45.691-101.852-101.852-101.852z" fill="url(#SVGID_2_)"/></g></svg>