<svg id="Capa_1" enable-background="new 0 0 512 512" height="512" viewBox="0 0 512 512" width="512" xmlns="http://www.w3.org/2000/svg"><g><path d="m0 31.721v292.116h256l15-61.558-15-105z" fill="#ffb54c"/><path d="m512 31.721-256 125.558v166.558h256z" fill="#ff8756"/><path d="m40 260.279h75v30h-75z" fill="#374949"/><path d="m40 200.279h30v30h-30z" fill="#374949"/><path d="m0 31.721 256 146.058 15-75.5-15-70.558z" fill="#ffdd46"/><path d="m512 31.721h-256v146.058z" fill="#ffb54c"/><path d="m108 480.279h148l30-81-30-167.758z" fill="#f69"/><path d="m256 231.521v248.758h148z" fill="#e72d6b"/><path d="m241 427.279h15l6-41-6-41h-15z" fill="#ffdd46"/><path d="m256 345.279h15v82h-15z" fill="#ffb54c"/></g></svg>