<svg height="472pt" viewBox="0 -3 472 471" width="472pt" xmlns="http://www.w3.org/2000/svg"><path d="m472 48.5v224c-.027344 8.824219-7.175781 15.972656-16 16h-224c-8.824219-.027344-15.972656-7.175781-16-16v-224zm0 0" fill="#5aaae7"/><path d="m366.558594 288.5c-2.722656-7.769531-9.253906-13.589844-17.28125-15.410156-8.027344-1.820313-16.429688.617187-22.238282 6.449218-2.542968 2.503907-4.464843 5.574219-5.597656 8.960938-.96875 2.554688-1.457031 5.265625-1.441406 8 0 13.253906 10.746094 24 24 24s24-10.746094 24-24c.015625-2.734375-.472656-5.445312-1.441406-8zm0 0" fill="#ffd422"/><path d="m400 200.5c0 13.253906-10.746094 24-24 24s-24-10.746094-24-24 10.746094-24 24-24 24 10.746094 24 24zm0 0" fill="#ffd422"/><path d="m344 80.5c13.253906 0 24 10.746094 24 24s-10.746094 24-24 24-24-10.746094-24-24 10.746094-24 24-24zm0 0" fill="#ffd422"/><path d="m270.640625 177.859375c10.800781 10.789063 12.476563 27.703125 4.003906 40.402344-8.476562 12.699219-24.738281 17.644531-38.84375 11.8125-14.109375-5.835938-22.132812-20.820313-19.164062-35.792969 2.964843-14.976562 16.097656-25.769531 31.363281-25.78125 8.484375.015625 16.621094 3.378906 22.640625 9.359375zm0 0" fill="#ff5023"/><path d="m192 464.5h-184v-83.359375c.03125-21.636719 14.5-40.589844 35.359375-46.320313l41.761719-11.359374 34.878906 29.039062 34.878906-29.039062 41.761719 11.359374c20.859375 5.730469 35.328125 24.683594 35.359375 46.320313v83.359375zm0 0" fill="#00ccb3"/><path d="m154.878906 323.460938-34.878906 29.039062-34.878906-29.039062 10.878906-2.960938v-22.480469c14.832031 8.640625 33.167969 8.640625 48 0v22.480469zm0 0" fill="#ffce8c"/><path d="m139.441406 222.339844c2.710938 10.652344 12.285156 18.121094 23.277344 18.160156h5.28125v16c.007812 17.136719-9.144531 32.972656-24 41.519531-14.832031 8.640625-33.167969 8.640625-48 0-3.636719-2.070312-6.972656-4.625-9.921875-7.597656-9.042969-8.964844-14.117187-21.1875-14.078125-33.921875v-16h8c14.550781.015625 28.667969-4.953125 40-14.078125 4.1875-3.375 7.945312-7.242187 11.199219-11.523437l4.800781-6.398438zm0 0" fill="#ffdaaa"/><path d="m120 226.421875c-11.332031 9.125-25.449219 14.09375-40 14.078125h-8c-2.703125.023438-5.394531-.324219-8-1.039062-14.132812-3.625-24.011719-16.371094-24-30.960938v-40c0-4.417969 3.582031-8 8-8h72c30.929688 0 56 25.070312 56 56v24h-13.28125c-10.992188-.039062-20.566406-7.507812-23.277344-18.160156l-3.441406-13.839844-4.800781 6.398438c-3.253907 4.28125-7.011719 8.148437-11.199219 11.523437zm0 0" fill="#57565c"/><path d="m232 .5h224c8.824219.027344 15.972656 7.175781 16 16v32h-256v-32c.027344-8.824219 7.175781-15.972656 16-16zm0 0" fill="#ff6243"/><g fill="#1e81ce"><path d="m264.984375 228.800781 11.3125-11.3125 56.398437 56.398438-11.3125 11.3125zm0 0"/><path d="m264.980469 172.203125 56.398437-56.398437 11.3125 11.3125-56.398437 56.398437zm0 0"/><path d="m280 192.5h72v16h-72zm0 0"/><path d="m344 400.5h-88v-16h80v-40h16v48c0 4.417969-3.582031 8-8 8zm0 0"/><path d="m256 416.5h16v16h-16zm0 0"/><path d="m288 416.5h16v16h-16zm0 0"/><path d="m368 344.5h16v16h-16zm0 0"/><path d="m368 376.5h16v16h-16zm0 0"/><path d="m320 416.5h16v16h-16zm0 0"/></g><path d="m240 16.5h16v16h-16zm0 0" fill="#cd2a00"/><path d="m272 16.5h16v16h-16zm0 0" fill="#cd2a00"/><path d="m304 16.5h16v16h-16zm0 0" fill="#cd2a00"/><path d="m165.65625 74.84375-24-24-11.3125 11.3125 10.34375 10.34375h-76.6875v16h76.6875l-10.34375 10.34375 11.3125 11.3125 24-24c3.121094-3.125 3.121094-8.1875 0-11.3125zm0 0" fill="#1e81ce"/><path d="m32 72.5h16v16h-16zm0 0" fill="#1e81ce"/><path d="m0 72.5h16v16h-16zm0 0" fill="#1e81ce"/><path d="m56 24.5h48v16h-48zm0 0" fill="#1e81ce"/><path d="m24 24.5h16v16h-16zm0 0" fill="#1e81ce"/><path d="m40 384.5h16v80h-16zm0 0" fill="#00b39d"/><path d="m184 384.5h16v80h-16zm0 0" fill="#00b39d"/><path d="m248 240.5c-22.089844 0-40-17.910156-40-40s17.910156-40 40-40 40 17.910156 40 40c-.027344 22.082031-17.917969 39.972656-40 40zm0-64c-13.253906 0-24 10.746094-24 24s10.746094 24 24 24 24-10.746094 24-24-10.746094-24-24-24zm0 0" fill="#cd2a00"/><path d="m376 232.5c-17.671875 0-32-14.328125-32-32s14.328125-32 32-32 32 14.328125 32 32-14.328125 32-32 32zm0-48c-8.835938 0-16 7.164062-16 16s7.164062 16 16 16 16-7.164062 16-16-7.164062-16-16-16zm0 0" fill="#ddb200"/><path d="m344 136.5c-17.671875 0-32-14.328125-32-32s14.328125-32 32-32 32 14.328125 32 32-14.328125 32-32 32zm0-48c-8.835938 0-16 7.164062-16 16s7.164062 16 16 16 16-7.164062 16-16-7.164062-16-16-16zm0 0" fill="#ddb200"/><path d="m344 328.5c-17.671875 0-32-14.328125-32-32s14.328125-32 32-32 32 14.328125 32 32-14.328125 32-32 32zm0-48c-8.835938 0-16 7.164062-16 16s7.164062 16 16 16 16-7.164062 16-16-7.164062-16-16-16zm0 0" fill="#ddb200"/></svg>